# xmcd
#
# Track frame offsets:
#	150
#	11700
#	22575
#	32475
#	45825
#	58425
#	69750
#	78450
#	92850
#	104475
#	120075
#	132600
#	150225
#	170475
#	182775
#	194025
#	206850
#
# Disc length: 2892 seconds
#
# Revision: 1
# Processed by: cddbd v1.5.2PL0 Copyright (c) Steve Scherf et al.
# Submitted via: audiograbber 1.83.01
#
DISCID=dd0b4a11
DTITLE=Various Artist - Country and Western Express
DYEAR=1900
DGENRE=Country
TTITLE0=Bobby Bare - Music City USA
TTITLE1=Ferlin Husky - The Bridge I Have Never Crossed
TTITLE2=Don Williams - Take My Hand For A While
TTITLE3=Dave Dudley - Counterfeit Cowboy
TTITLE4=Dolly Parton - Little Blossom
TTITLE5=George Jones - I can't Change Overnight
TTITLE6=The Nashville Gamblers - Footprints In the Snow
TTITLE7=Willie Nelson - Will you Remember Mine
TTITLE8=Dave Dudley - Mary Lou You Took The Party With You
TTITLE9=Karen O'Donell - I Know What It's All About Now, Mama
TTITLE10=Oak Ridge Boys - You'll Never Walk Alone
TTITLE11=Bobby Bare - Sylvia's Mother
TTITLE12=Emmylou Harris and Gram Parsons - Love Hurts
TTITLE13=Frankie Laine - Moonlight Gambler
TTITLE14=The Nashville Gamblers - Home On The Range
TTITLE15=Dave Dudley - Have It Your Way
TTITLE16=Bobby Joe Bratcher - Carry Me Back To Old Virginny
EXTD=
EXTT0=
EXTT1=
EXTT2=
EXTT3=
EXTT4=
EXTT5=
EXTT6=
EXTT7=
EXTT8=
EXTT9=
EXTT10=
EXTT11=
EXTT12=
EXTT13=
EXTT14=
EXTT15=
EXTT16=
PLAYORDER=
